<svg viewBox="176 118 330 330" role="img" xmlns="http://www.w3.org/2000/svg">
  <title>Syntrix</title>
  <defs>
    <linearGradient id="sg" x1="0%" y1="0%" x2="0%" y2="100%">
      <stop offset="0%" stop-color="#60a5fa" />
      <stop offset="50%" stop-color="#818cf8" />
      <stop offset="100%" stop-color="#34d399" />
    </linearGradient>
    <radialGradient id="ng1" cx="50%" cy="50%" r="50%">
      <stop offset="0%" stop-color="#93c5fd" />
      <stop offset="100%" stop-color="#3b82f6" />
    </radialGradient>
    <radialGradient id="ng2" cx="50%" cy="50%" r="50%">
      <stop offset="0%" stop-color="#a5b4fc" />
      <stop offset="100%" stop-color="#6366f1" />
    </radialGradient>
    <radialGradient id="ng3" cx="50%" cy="50%" r="50%">
      <stop offset="0%" stop-color="#6ee7b7" />
      <stop offset="100%" stop-color="#10b981" />
    </radialGradient>
  </defs>
  <path d="M 260 210 C 260 180, 310 165, 340 165 C 390 165, 420 185, 420 220 C 420 255, 390 270, 340 280 C 290 290, 260 305, 260 345 C 260 380, 295 415, 345 415 C 390 415, 420 398, 420 370" fill="none" stroke="#3b82f6" stroke-width="18" stroke-linecap="round" opacity="0.2" />
  <path d="M 258 210 C 258 178, 308 163, 340 163 C 392 163, 422 184, 422 220 C 422 257, 390 273, 340 283 C 288 293, 258 308, 258 345 C 258 382, 295 417, 345 417 C 392 417, 422 399, 422 370" fill="none" stroke="url(#sg)" stroke-width="14" stroke-linecap="round" />
  <circle cx="340" cy="163" r="28" fill="#3b82f6" opacity="0.18" />
  <circle cx="340" cy="283" r="32" fill="#6366f1" opacity="0.18" />
  <circle cx="345" cy="417" r="28" fill="#10b981" opacity="0.18" />
  <circle cx="340" cy="163" r="14" fill="url(#ng1)" />
  <circle cx="422" cy="220" r="11" fill="url(#ng1)" opacity="0.85" />
  <circle cx="340" cy="283" r="16" fill="url(#ng2)" />
  <circle cx="258" cy="345" r="11" fill="url(#ng2)" opacity="0.85" />
  <circle cx="345" cy="417" r="14" fill="url(#ng3)" />
  <circle cx="422" cy="370" r="11" fill="url(#ng3)" />
  <circle cx="258" cy="210" r="7" fill="#60a5fa" opacity="0.6" />
  <circle cx="422" cy="293" r="7" fill="#818cf8" opacity="0.6" />
</svg>